<svg width="72px" height="48px" viewBox="0 0 72 48" version="1.1" xmlns="http://www.w3.org/2000/svg" xmlns:xlink="http://www.w3.org/1999/xlink">
    <!-- Generator: Sketch 51.1 (57501) - http://www.bohemiancoding.com/sketch - Tony Ciccarone https://tonyciccarone.com -->
    <desc>Wyze:  HD</desc>
    <defs></defs>
    <g id="Symbols" stroke="none" stroke-width="1" fill="none" fill-rule="evenodd">
        <g id="icon-/-hd" transform="translate(-12.000000, -8.000000)" fill="#002632">
            <path d="M18,8 L78,8 C81.3137085,8 84,10.6862915 84,14 L84,50 C84,53.3137085 81.3137085,56 78,56 L18,56 C14.6862915,56 12,53.3137085 12,50 L12,14 C12,10.6862915 14.6862915,8 18,8 Z M40.972,18.44 L40.972,28.808 L30.244,28.772 L30.244,18.44 L25.564,18.44 L25.564,44 L30.244,44 L30.244,33.308 L40.972,33.344 L40.972,44 L45.652,44 L45.652,18.44 L40.972,18.44 Z M60.7,18.404 L51.484,18.404 L51.484,44 L60.7,44 C68.44,44 73.948,38.78 73.948,31.22 C73.948,23.696 68.368,18.404 60.7,18.404 Z M60.7,39.788 L56.2,39.788 L56.2,22.652 L60.7,22.652 C65.74,22.652 68.764,26.036 68.764,31.22 C68.764,36.44 65.776,39.788 60.7,39.788 Z" id="Combined-Shape"></path>
        </g>
    </g>
</svg>
