<svg width="64px" height="44px" viewBox="0 0 64 44" version="1.1" xmlns="http://www.w3.org/2000/svg" xmlns:xlink="http://www.w3.org/1999/xlink">
    <!-- Generator: Sketch 51.1 (57501) - http://www.bohemiancoding.com/sketch - Tony Ciccarone https://tonyciccarone.com -->
    <desc>Wyze:  Micro SD Card</desc>
    <defs></defs>
    <g id="Symbols" stroke="none" stroke-width="1" fill="none" fill-rule="evenodd">
        <g id="icon-/-microsd" transform="translate(-16.000000, -10.000000)" fill="#002632">
            <path d="M20,10 L76,10 C78.209139,10 80,11.790861 80,14 L80,40 C80,42.209139 78.209139,44 76,44 L55.1323808,44 C54.4298551,44 53.7788414,44.3685977 53.4173949,44.9710085 L48.5826051,53.0289915 C48.2211586,53.6314023 47.5701449,54 46.8676192,54 L44,54 C42.8954305,54 42,53.1045695 42,52 C42,50.8954305 41.1045695,50 40,50 L38.8284271,50 C38.2979941,50 37.7892863,50.2107137 37.4142136,50.5857864 L34.5857864,53.4142136 C34.2107137,53.7892863 33.7020059,54 33.1715729,54 L20,54 C17.790861,54 16,52.209139 16,50 L16,14 C16,11.790861 17.790861,10 20,10 Z M22,14 C20.8954305,14 20,14.8954305 20,16 L20,48 C20,49.1045695 20.8954305,50 22,50 L30,50 C31.1045695,50 32,49.1045695 32,48 L32,16 C32,14.8954305 31.1045695,14 30,14 L22,14 Z M65,14 C64.4477153,14 64,14.4477153 64,15 C64,15.5522847 64.4477153,16 65,16 L75,16 C75.5522847,16 76,15.5522847 76,15 C76,14.4477153 75.5522847,14 75,14 L65,14 Z M65,18 C64.4477153,18 64,18.4477153 64,19 C64,19.5522847 64.4477153,20 65,20 L75,20 C75.5522847,20 76,19.5522847 76,19 C76,18.4477153 75.5522847,18 75,18 L65,18 Z M65,22 C64.4477153,22 64,22.4477153 64,23 C64,23.5522847 64.4477153,24 65,24 L75,24 C75.5522847,24 76,23.5522847 76,23 C76,22.4477153 75.5522847,22 75,22 L65,22 Z M65,26 C64.4477153,26 64,26.4477153 64,27 C64,27.5522847 64.4477153,28 65,28 L75,28 C75.5522847,28 76,27.5522847 76,27 C76,26.4477153 75.5522847,26 75,26 L65,26 Z M65,30 C64.4477153,30 64,30.4477153 64,31 C64,31.5522847 64.4477153,32 65,32 L75,32 C75.5522847,32 76,31.5522847 76,31 C76,30.4477153 75.5522847,30 75,30 L65,30 Z M65,34 C64.4477153,34 64,34.4477153 64,35 C64,35.5522847 64.4477153,36 65,36 L75,36 C75.5522847,36 76,35.5522847 76,35 C76,34.4477153 75.5522847,34 75,34 L65,34 Z M65,38 C64.4477153,38 64,38.4477153 64,39 C64,39.5522847 64.4477153,40 65,40 L75,40 C75.5522847,40 76,39.5522847 76,39 C76,38.4477153 75.5522847,38 75,38 L65,38 Z" id="Combined-Shape"></path>
        </g>
    </g>
</svg>
