<svg width="72px" height="48px" viewBox="0 0 72 48" version="1.1" xmlns="http://www.w3.org/2000/svg" xmlns:xlink="http://www.w3.org/1999/xlink">
    <!-- Generator: Sketch 51.1 (57501) - http://www.bohemiancoding.com/sketch - Tony Ciccarone https://tonyciccarone.com -->
    <desc>Wyze:  SD</desc>
    <defs></defs>
    <g id="Symbols" stroke="none" stroke-width="1" fill="none" fill-rule="evenodd">
        <g id="icon-/-sd" transform="translate(-12.000000, -8.000000)" fill="#002632">
            <path d="M18,8 L78,8 C81.3137085,8 84,10.6862915 84,14 L84,50 C84,53.3137085 81.3137085,56 78,56 L18,56 C14.6862915,56 12,53.3137085 12,50 L12,14 C12,10.6862915 14.6862915,8 18,8 Z M44.95,24.308 C44.23,20.924 40.486,17.936 35.554,17.936 C30.946,17.936 26.914,21.32 26.914,25.784 C26.914,29.816 29.146,32.228 32.782,33.02 C34.402,33.344 36.634,33.74 37.786,34.136 C39.118,34.64 39.838,35.756 39.802,36.8 C39.802,38.636 37.93,39.716 35.626,39.716 C33.574,39.716 31.054,38.744 30.73,36.656 L26.05,37.34 C26.302,42.056 30.982,44.396 35.41,44.396 C40.054,44.396 44.734,41.804 44.734,36.656 C44.734,32.552 42.142,29.744 37.714,28.988 C36.598,28.772 35.446,28.628 34.186,28.304 C32.098,27.908 31.45,26.432 31.846,25.064 C32.35,23.408 33.97,22.616 35.698,22.616 C37.57,22.616 39.766,23.624 40.27,25.532 L44.95,24.308 Z M58.378,18.404 L49.162,18.404 L49.162,44 L58.378,44 C66.118,44 71.626,38.78 71.626,31.22 C71.626,23.696 66.046,18.404 58.378,18.404 Z M58.378,39.788 L53.878,39.788 L53.878,22.652 L58.378,22.652 C63.418,22.652 66.442,26.036 66.442,31.22 C66.442,36.44 63.454,39.788 58.378,39.788 Z" id="Combined-Shape"></path>
        </g>
    </g>
</svg>
