<svg width="58px" height="40px" viewBox="0 0 58 40" version="1.1" xmlns="http://www.w3.org/2000/svg" xmlns:xlink="http://www.w3.org/1999/xlink">
    <!-- Generator: Sketch 51.1 (57501) - http://www.bohemiancoding.com/sketch - Tony Ciccarone https://tonyciccarone.com -->
    <desc>Wyze:  Storage</desc>
    <defs></defs>
    <g id="Symbols" stroke="none" stroke-width="1" fill="none" fill-rule="evenodd">
        <g id="icon-/-storage" transform="translate(-19.000000, -12.000000)">
            <path d="M48,31.1795741 C43.7485028,27.0905177 40.2230845,25 37.2,25 C32.1313928,25 28,29.0166319 28,34 C28,38.9833681 32.1313928,43 37.2,43 C40.2230845,43 43.7485028,40.9094823 48,36.8204259 C52.2514972,40.9094823 55.7769155,43 58.8,43 C63.8686072,43 68,38.9833681 68,34 C68,29.0166319 63.8686072,25 58.8,25 C55.7769155,25 52.2514972,27.0905177 48,31.1795741 Z M21,12 L35.9296325,12 C36.5983389,12 37.2228015,12.3342023 37.5937331,12.8905996 L40.4062669,17.1094004 C40.7771985,17.6657977 41.4016611,18 42.0703675,18 L75,18 C76.1045695,18 77,18.8954305 77,20 L77,50 C77,51.1045695 76.1045695,52 75,52 L21,52 C19.8954305,52 19,51.1045695 19,50 L19,14 C19,12.8954305 19.8954305,12 21,12 Z M37.2,29 C38.9222849,29 41.646616,30.6375716 45.1606662,34 C41.646616,37.3624284 38.9222849,39 37.2,39 C34.3157068,39 32,36.7486184 32,34 C32,31.2513816 34.3157068,29 37.2,29 Z M58.8,39 C57.0777151,39 54.353384,37.3624284 50.8393338,34 C54.353384,30.6375716 57.0777151,29 58.8,29 C61.6842932,29 64,31.2513816 64,34 C64,36.7486184 61.6842932,39 58.8,39 Z" id="Combined-Shape" fill="#002632"></path>
            <g id="Group-Copy" transform="translate(28.000000, 25.000000)"></g>
        </g>
    </g>
</svg>
